<svg width="614" height="142" viewBox="0 0 614 142" fill="none" xmlns="http://www.w3.org/2000/svg">
<g filter="url(#filter0_d_213_3)">
<path d="M6.224 51.944C6.224 43.0693 8.144 35.176 11.984 28.264C15.824 21.2667 21.1573 15.848 27.984 12.008C34.896 8.08266 42.704 6.12 51.408 6.12C62.0747 6.12 71.2053 8.93599 78.8 14.568C86.3947 20.2 91.472 27.88 94.032 37.608H69.968C68.176 33.8533 65.616 30.9947 62.288 29.032C59.0453 27.0693 55.3333 26.088 51.152 26.088C44.4107 26.088 38.9493 28.4347 34.768 33.128C30.5867 37.8213 28.496 44.0933 28.496 51.944C28.496 59.7947 30.5867 66.0667 34.768 70.76C38.9493 75.4533 44.4107 77.8 51.152 77.8C55.3333 77.8 59.0453 76.8187 62.288 74.856C65.616 72.8933 68.176 70.0347 69.968 66.28H94.032C91.472 76.008 86.3947 83.688 78.8 89.32C71.2053 94.8667 62.0747 97.64 51.408 97.64C42.704 97.64 34.896 95.72 27.984 91.88C21.1573 87.9547 15.824 82.536 11.984 75.624C8.144 68.712 6.224 60.8187 6.224 51.944ZM129.324 2.28V97H107.436V2.28H129.324ZM140.834 61.16C140.834 53.8213 142.199 47.3787 144.93 41.832C147.746 36.2853 151.543 32.0187 156.322 29.032C161.101 26.0453 166.434 24.552 172.322 24.552C177.357 24.552 181.751 25.576 185.506 27.624C189.346 29.672 192.29 32.36 194.338 35.688V25.576H216.226V97H194.338V86.888C192.205 90.216 189.218 92.904 185.378 94.952C181.623 97 177.229 98.024 172.194 98.024C166.391 98.024 161.101 96.5307 156.322 93.544C151.543 90.472 147.746 86.1627 144.93 80.616C142.199 74.984 140.834 68.4987 140.834 61.16ZM194.338 61.288C194.338 55.8267 192.802 51.5173 189.73 48.36C186.743 45.2027 183.074 43.624 178.722 43.624C174.37 43.624 170.658 45.2027 167.586 48.36C164.599 51.432 163.106 55.6987 163.106 61.16C163.106 66.6213 164.599 70.9733 167.586 74.216C170.658 77.3733 174.37 78.952 178.722 78.952C183.074 78.952 186.743 77.3733 189.73 74.216C192.802 71.0587 194.338 66.7493 194.338 61.288ZM261.117 98.024C254.888 98.024 249.341 96.9573 244.477 94.824C239.613 92.6907 235.773 89.7893 232.957 86.12C230.141 82.3653 228.562 78.184 228.221 73.576H249.853C250.109 76.0507 251.261 78.056 253.309 79.592C255.357 81.128 257.874 81.896 260.861 81.896C263.592 81.896 265.682 81.384 267.133 80.36C268.669 79.2507 269.437 77.8427 269.437 76.136C269.437 74.088 268.37 72.5947 266.237 71.656C264.104 70.632 260.648 69.5227 255.869 68.328C250.749 67.1333 246.482 65.896 243.069 64.616C239.656 63.2507 236.712 61.16 234.237 58.344C231.762 55.4427 230.525 51.56 230.525 46.696C230.525 42.6 231.634 38.888 233.853 35.56C236.157 32.1467 239.485 29.4587 243.837 27.496C248.274 25.5333 253.522 24.552 259.581 24.552C268.541 24.552 275.581 26.7707 280.701 31.208C285.906 35.6453 288.893 41.5333 289.661 48.872H269.437C269.096 46.3973 267.986 44.4347 266.109 42.984C264.317 41.5333 261.928 40.808 258.941 40.808C256.381 40.808 254.418 41.32 253.053 42.344C251.688 43.2827 251.005 44.6053 251.005 46.312C251.005 48.36 252.072 49.896 254.205 50.92C256.424 51.944 259.837 52.968 264.445 53.992C269.736 55.3573 274.045 56.7227 277.373 58.088C280.701 59.368 283.602 61.5013 286.077 64.488C288.637 67.3893 289.96 71.3147 290.045 76.264C290.045 80.4453 288.85 84.2 286.461 87.528C284.157 90.7707 280.786 93.3307 276.349 95.208C271.997 97.0853 266.92 98.024 261.117 98.024ZM332.492 98.024C326.263 98.024 320.716 96.9573 315.852 94.824C310.988 92.6907 307.148 89.7893 304.332 86.12C301.516 82.3653 299.937 78.184 299.596 73.576H321.228C321.484 76.0507 322.636 78.056 324.684 79.592C326.732 81.128 329.249 81.896 332.236 81.896C334.967 81.896 337.057 81.384 338.508 80.36C340.044 79.2507 340.812 77.8427 340.812 76.136C340.812 74.088 339.745 72.5947 337.612 71.656C335.479 70.632 332.023 69.5227 327.244 68.328C322.124 67.1333 317.857 65.896 314.444 64.616C311.031 63.2507 308.087 61.16 305.612 58.344C303.137 55.4427 301.9 51.56 301.9 46.696C301.9 42.6 303.009 38.888 305.228 35.56C307.532 32.1467 310.86 29.4587 315.212 27.496C319.649 25.5333 324.897 24.552 330.956 24.552C339.916 24.552 346.956 26.7707 352.076 31.208C357.281 35.6453 360.268 41.5333 361.036 48.872H340.812C340.471 46.3973 339.361 44.4347 337.484 42.984C335.692 41.5333 333.303 40.808 330.316 40.808C327.756 40.808 325.793 41.32 324.428 42.344C323.063 43.2827 322.38 44.6053 322.38 46.312C322.38 48.36 323.447 49.896 325.58 50.92C327.799 51.944 331.212 52.968 335.82 53.992C341.111 55.3573 345.42 56.7227 348.748 58.088C352.076 59.368 354.977 61.5013 357.452 64.488C360.012 67.3893 361.335 71.3147 361.42 76.264C361.42 80.4453 360.225 84.2 357.836 87.528C355.532 90.7707 352.161 93.3307 347.724 95.208C343.372 97.0853 338.295 98.024 332.492 98.024ZM447.771 25.576L402.971 130.92H379.419L395.803 94.568L366.747 25.576H391.195L407.707 70.248L424.091 25.576H447.771ZM499.206 24.808C507.569 24.808 514.225 27.5387 519.174 33C524.209 38.376 526.726 45.8 526.726 55.272V97H504.966V58.216C504.966 53.4373 503.729 49.7253 501.254 47.08C498.779 44.4347 495.451 43.112 491.27 43.112C487.089 43.112 483.761 44.4347 481.286 47.08C478.811 49.7253 477.574 53.4373 477.574 58.216V97H455.686V25.576H477.574V35.048C479.793 31.8907 482.779 29.416 486.534 27.624C490.289 25.7467 494.513 24.808 499.206 24.808ZM537.584 61.288C537.584 53.864 539.077 47.3787 542.064 41.832C545.136 36.2853 549.36 32.0187 554.736 29.032C560.197 26.0453 566.427 24.552 573.424 24.552C582.384 24.552 589.851 26.8987 595.824 31.592C601.883 36.2853 605.851 42.8987 607.728 51.432H584.432C582.469 45.9707 578.672 43.24 573.04 43.24C569.029 43.24 565.829 44.8187 563.44 47.976C561.051 51.048 559.856 55.4853 559.856 61.288C559.856 67.0907 561.051 71.5707 563.44 74.728C565.829 77.8 569.029 79.336 573.04 79.336C578.672 79.336 582.469 76.6053 584.432 71.144H607.728C605.851 79.5067 601.883 86.0773 595.824 90.856C589.765 95.6347 582.299 98.024 573.424 98.024C566.427 98.024 560.197 96.5307 554.736 93.544C549.36 90.5573 545.136 86.2907 542.064 80.744C539.077 75.1973 537.584 68.712 537.584 61.288Z" fill="url(#paint0_linear_213_3)"/>
</g>
<defs>
<filter id="filter0_d_213_3" x="0.0241213" y="0.0800295" width="613.904" height="141.04" filterUnits="userSpaceOnUse" color-interpolation-filters="sRGB">
<feFlood flood-opacity="0" result="BackgroundImageFix"/>
<feColorMatrix in="SourceAlpha" type="matrix" values="0 0 0 0 0 0 0 0 0 0 0 0 0 0 0 0 0 0 127 0" result="hardAlpha"/>
<feOffset dy="4"/>
<feGaussianBlur stdDeviation="3.1"/>
<feComposite in2="hardAlpha" operator="out"/>
<feColorMatrix type="matrix" values="0 0 0 0 1 0 0 0 0 1 0 0 0 0 1 0 0 0 0.4 0"/>
<feBlend mode="normal" in2="BackgroundImageFix" result="effect1_dropShadow_213_3"/>
<feBlend mode="normal" in="SourceGraphic" in2="effect1_dropShadow_213_3" result="shape"/>
</filter>
<linearGradient id="paint0_linear_213_3" x1="2" y1="34.5" x2="619" y2="34.5" gradientUnits="userSpaceOnUse">
<stop stop-color="white"/>
<stop offset="1" stop-color="#B8DAFF"/>
</linearGradient>
</defs>
</svg>
